<?xml version="1.0" encoding="UTF-8" standalone="no"?>
<svg
   xmlns:dc="http://purl.org/dc/elements/1.1/"
   xmlns:cc="http://creativecommons.org/ns#"
   xmlns:rdf="http://www.w3.org/1999/02/22-rdf-syntax-ns#"
   xmlns:svg="http://www.w3.org/2000/svg"
   xmlns="http://www.w3.org/2000/svg"
   xmlns:xlink="http://www.w3.org/1999/xlink"
   xmlns:sodipodi="http://sodipodi.sourceforge.net/DTD/sodipodi-0.dtd"
   xmlns:inkscape="http://www.inkscape.org/namespaces/inkscape"
   width="476.25mm"
   height="211.66667mm"
   viewBox="0 0 476.25 211.66667"
   version="1.1"
   id="svg2044"
   inkscape:version="1.0.2 (e86c870879, 2021-01-15, custom)"
   sodipodi:docname="brand_mark-brand_name.svg">
  <defs
     id="defs2038">
    <linearGradient
       inkscape:collect="always"
       xlink:href="#linearGradient1283"
       id="linearGradient1285"
       x1="1129.9757"
       y1="-279.52811"
       x2="1106.3173"
       y2="-227.8849"
       gradientUnits="userSpaceOnUse" />
    <linearGradient
       inkscape:collect="always"
       id="linearGradient1283">
      <stop
         style="stop-color:#7f6ac4;stop-opacity:1"
         offset="0"
         id="stop1279" />
      <stop
         style="stop-color:#6965b2;stop-opacity:1"
         offset="0.54431146"
         id="stop1287" />
      <stop
         style="stop-color:#6253a5;stop-opacity:1"
         offset="0.80122232"
         id="stop1289" />
      <stop
         style="stop-color:#503798;stop-opacity:1"
         offset="1"
         id="stop1281" />
    </linearGradient>
    <linearGradient
       inkscape:collect="always"
       xlink:href="#linearGradient1295"
       id="linearGradient1297"
       x1="1737.8531"
       y1="-132.61835"
       x2="1744.9078"
       y2="-144.10147"
       gradientUnits="userSpaceOnUse"
       gradientTransform="translate(38.407597,-3.8637282)" />
    <linearGradient
       inkscape:collect="always"
       id="linearGradient1295">
      <stop
         style="stop-color:#595295;stop-opacity:1"
         offset="0"
         id="stop1291" />
      <stop
         style="stop-color:#6862b0;stop-opacity:1"
         offset="1"
         id="stop1293" />
    </linearGradient>
    <filter
       inkscape:collect="always"
       style="color-interpolation-filters:sRGB"
       id="filter1415"
       x="-0.09112367"
       width="1.1822473"
       y="-0.050751265"
       height="1.1015025">
      <feGaussianBlur
         inkscape:collect="always"
         stdDeviation="0.81463404"
         id="feGaussianBlur1417" />
    </filter>
    <linearGradient
       inkscape:collect="always"
       xlink:href="#linearGradient1303"
       id="linearGradient1305"
       x1="1749.865"
       y1="-194.29318"
       x2="1740.9514"
       y2="-178.31851"
       gradientUnits="userSpaceOnUse"
       gradientTransform="translate(38.407597,-3.8637282)" />
    <linearGradient
       inkscape:collect="always"
       id="linearGradient1303">
      <stop
         style="stop-color:#7e7bc9;stop-opacity:1;"
         offset="0"
         id="stop1299" />
      <stop
         style="stop-color:#639ed3;stop-opacity:0"
         offset="1"
         id="stop1301" />
    </linearGradient>
    <linearGradient
       inkscape:collect="always"
       xlink:href="#linearGradient1313"
       id="linearGradient1315"
       x1="1775.4581"
       y1="-189.39191"
       x2="1779.1198"
       y2="-184.18443"
       gradientUnits="userSpaceOnUse" />
    <linearGradient
       inkscape:collect="always"
       id="linearGradient1313">
      <stop
         style="stop-color:#b2b1e2;stop-opacity:1"
         offset="0"
         id="stop1309" />
      <stop
         style="stop-color:#7976bf;stop-opacity:0"
         offset="1"
         id="stop1311" />
    </linearGradient>
    <linearGradient
       inkscape:collect="always"
       xlink:href="#linearGradient1321"
       id="linearGradient1323"
       x1="1765.8953"
       y1="-181.86725"
       x2="1769.8228"
       y2="-176.92413"
       gradientUnits="userSpaceOnUse" />
    <linearGradient
       inkscape:collect="always"
       id="linearGradient1321">
      <stop
         style="stop-color:#c9c8e2;stop-opacity:1;"
         offset="0"
         id="stop1317" />
      <stop
         style="stop-color:#c9c8e2;stop-opacity:0;"
         offset="1"
         id="stop1319" />
    </linearGradient>
    <linearGradient
       inkscape:collect="always"
       xlink:href="#linearGradient1321"
       id="linearGradient1331"
       x1="1769.7659"
       y1="-189.01302"
       x2="1777.6898"
       y2="-174.10329"
       gradientUnits="userSpaceOnUse" />
    <rect
       x="2015.5549"
       y="-185.8371"
       width="27.409582"
       height="12.993103"
       id="rect882" />
    <rect
       x="2015.5549"
       y="-185.8371"
       width="27.409582"
       height="12.993103"
       id="rect2021" />
  </defs>
  <sodipodi:namedview
     id="base"
     pagecolor="#ffffff"
     bordercolor="#666666"
     borderopacity="1.0"
     inkscape:pageopacity="0.0"
     inkscape:pageshadow="2"
     inkscape:zoom="0.24748737"
     inkscape:cx="958.68703"
     inkscape:cy="588.8623"
     inkscape:document-units="mm"
     inkscape:current-layer="layer1"
     inkscape:document-rotation="0"
     showgrid="false"
     fit-margin-top="0"
     fit-margin-left="0"
     fit-margin-right="0"
     fit-margin-bottom="0"
     inkscape:window-width="1920"
     inkscape:window-height="1080"
     inkscape:window-x="1920"
     inkscape:window-y="0"
     inkscape:window-maximized="0" />
  <metadata
     id="metadata2041">
    <rdf:RDF>
      <cc:Work
         rdf:about="">
        <dc:format>image/svg+xml</dc:format>
        <dc:type
           rdf:resource="http://purl.org/dc/dcmitype/StillImage" />
        <dc:title></dc:title>
      </cc:Work>
    </rdf:RDF>
  </metadata>
  <g
     inkscape:label="Layer 1"
     inkscape:groupmode="layer"
     id="layer1"
     transform="translate(-21.922628,6.047617)">
    <g
       id="g2727">
      <g
         id="g1456"
         transform="matrix(2.606675,0,0,2.606675,-4543.1224,534.95007)">
        <path
           sodipodi:type="star"
           style="opacity:1;fill:url(#linearGradient1285);fill-opacity:1;stroke-width:0.218;stroke-linecap:round;stroke-linejoin:bevel"
           id="path1267"
           sodipodi:sides="5"
           sodipodi:cx="1116.2006"
           sodipodi:cy="-253.72745"
           sodipodi:r1="28.753199"
           sodipodi:r2="23.261827"
           sodipodi:arg1="1.2081488"
           sodipodi:arg2="1.8364673"
           inkscape:flatsided="true"
           inkscape:rounded="0.4"
           inkscape:randomized="0.212"
           inkscape:transform-center-x="-1.3713425"
           inkscape:transform-center-y="-1.4917913"
           transform="matrix(-0.98886166,0.14883755,0.14883755,0.98886166,2929.0642,-81.933783)"
           d="m 1125.7555,-222.41389 c -13.3429,2.38036 -21.4127,1.01076 -27.4038,-12.25211 -5.991,-13.26287 -13.0245,-18.30635 -6.7245,-29.56648 6.2999,-11.26013 18.272,-26.51616 29.322,-20.94535 11.0499,5.57081 20.226,15.30104 20.2107,28.6798 -0.015,13.37875 -2.0615,31.70379 -15.4044,34.08414 z" />
        <path
           id="path1269"
           style="opacity:0.808438;fill:url(#linearGradient1297);fill-opacity:1;stroke-width:0.218;stroke-linecap:round;stroke-linejoin:bevel"
           inkscape:transform-center-x="-1.3713425"
           inkscape:transform-center-y="-1.4917913"
           d="m 1763.115,-177.25004 c -0.9971,3.59841 -1.2935,7.45416 -0.6764,11.52281 2.0064,13.22746 6.7572,31.0436 20.3057,31.41151 13.5486,0.36793 21.3247,-2.18752 25.275,-16.19436 2.1073,-7.47201 4.8548,-12.67499 5.7609,-17.45164 -1.1827,4.23666 -3.4621,8.97795 -5.2716,15.39389 -3.9502,14.00684 -11.7263,16.56228 -25.2749,16.19436 -13.5486,-0.36792 -18.2993,-18.18406 -20.3057,-31.41152 -0.501,-3.30289 -0.4016,-6.46629 0.187,-9.46505 z" />
        <g
           id="g1445"
           transform="translate(0.38884491,0.51445168)">
          <path
             style="color:#000000;font-style:normal;font-variant:normal;font-weight:normal;font-stretch:normal;font-size:medium;line-height:normal;font-family:sans-serif;font-variant-ligatures:normal;font-variant-position:normal;font-variant-caps:normal;font-variant-numeric:normal;font-variant-alternates:normal;font-variant-east-asian:normal;font-feature-settings:normal;font-variation-settings:normal;text-indent:0;text-align:start;text-decoration:none;text-decoration-line:none;text-decoration-style:solid;text-decoration-color:#000000;letter-spacing:normal;word-spacing:normal;text-transform:none;writing-mode:lr-tb;direction:ltr;text-orientation:mixed;dominant-baseline:auto;baseline-shift:baseline;text-anchor:start;white-space:normal;shape-padding:0;shape-margin:0;inline-size:0;clip-rule:nonzero;display:inline;overflow:visible;visibility:visible;opacity:0.507703;isolation:auto;mix-blend-mode:normal;color-interpolation:sRGB;color-interpolation-filters:linearRGB;solid-color:#000000;solid-opacity:1;vector-effect:none;fill:#371e7e;fill-opacity:1;fill-rule:nonzero;stroke:none;stroke-linecap:round;stroke-linejoin:miter;stroke-miterlimit:4;stroke-dasharray:none;stroke-dashoffset:0;stroke-opacity:1;filter:url(#filter1415);color-rendering:auto;image-rendering:auto;shape-rendering:auto;text-rendering:auto;enable-background:accumulate;stop-color:#000000;stop-opacity:1"
             d="m 1777.332,-184.61133 a 1.1525,1.1525 0 0 0 -0.1191,0.008 1.1525,1.1525 0 0 0 -0.061,0.008 1.1525,1.1525 0 0 0 -0.082,0.0156 1.1525,1.1525 0 0 0 -0.01,0.002 1.1525,1.1525 0 0 0 -0.1661,0.0527 1.1525,1.1525 0 0 0 -0.01,0.002 1.1525,1.1525 0 0 0 -0.076,0.0352 1.1525,1.1525 0 0 0 -0.055,0.0293 1.1525,1.1525 0 0 0 -0.1,0.0644 1.1525,1.1525 0 0 0 -0.031,0.0234 1.1525,1.1525 0 0 0 -0.041,0.0312 1.1525,1.1525 0 0 0 0,0.004 1.1525,1.1525 0 0 0 -0.066,0.0606 1.1525,1.1525 0 0 0 -0.1172,0.13672 1.1525,1.1525 0 0 0 -0.051,0.0742 1.1525,1.1525 0 0 0 0,0.002 1.1525,1.1525 0 0 0 -0.045,0.0762 1.1525,1.1525 0 0 0 0,0.002 1.1525,1.1525 0 0 0 -0.037,0.0801 1.1525,1.1525 0 0 0 0,0.002 1.1525,1.1525 0 0 0 -0.01,0.0215 1.1525,1.1525 0 0 0 -0.041,0.13086 1.1525,1.1525 0 0 0 -0.01,0.0176 1.1525,1.1525 0 0 0 0,0.002 1.1525,1.1525 0 0 0 -0.018,0.0859 1.1525,1.1525 0 0 0 0,0.002 1.1525,1.1525 0 0 0 -0.012,0.0879 1.1525,1.1525 0 0 0 0,0.002 1.1525,1.1525 0 0 0 0,0.0879 1.1525,1.1525 0 0 0 0,0.008 v 36.0293 a 1.1525,1.1525 0 0 0 0.3242,1.00585 1.1525,1.1525 0 0 0 1.4141,0.16407 1.1525,1.1525 0 0 0 0.016,-0.01 1.1525,1.1525 0 0 0 0.01,-0.004 1.1525,1.1525 0 0 0 0.068,-0.0469 1.1525,1.1525 0 0 0 0.025,-0.0195 1.1525,1.1525 0 0 0 0.031,-0.0254 1.1525,1.1525 0 0 0 0.1425,-0.13672 1.1525,1.1525 0 0 0 0,-0.002 l 8.8437,-8.9043 8.6211,7.9082 a 1.1525,1.1525 0 0 0 1.6289,-0.0703 1.1525,1.1525 0 0 0 -0.07,-1.62891 l -10.2539,-9.40429 -8.4941,8.55078 v -30.61133 l 8.5097,8.56641 10.252,-9.4043 a 1.1525,1.1525 0 0 0 0.07,-1.62891 1.1525,1.1525 0 0 0 -1.6269,-0.0703 l -8.6211,7.9082 -8.918,-8.97851 a 1.1525,1.1525 0 0 0 0,-0.002 1.1525,1.1525 0 0 0 -0.064,-0.0606 1.1525,1.1525 0 0 0 -0.068,-0.0566 1.1525,1.1525 0 0 0 -0.029,-0.0195 1.1525,1.1525 0 0 0 -0.096,-0.0586 1.1525,1.1525 0 0 0 -0.027,-0.0156 1.1525,1.1525 0 0 0 -0.164,-0.0703 1.1525,1.1525 0 0 0 -0.084,-0.0254 1.1525,1.1525 0 0 0 -0.088,-0.0176 1.1525,1.1525 0 0 0 -0.1797,-0.0156 1.1525,1.1525 0 0 0 -0.01,0 z"
             id="path1333" />
          <path
             style="color:#000000;font-style:normal;font-variant:normal;font-weight:normal;font-stretch:normal;font-size:medium;line-height:normal;font-family:sans-serif;font-variant-ligatures:normal;font-variant-position:normal;font-variant-caps:normal;font-variant-numeric:normal;font-variant-alternates:normal;font-variant-east-asian:normal;font-feature-settings:normal;font-variation-settings:normal;text-indent:0;text-align:start;text-decoration:none;text-decoration-line:none;text-decoration-style:solid;text-decoration-color:#000000;letter-spacing:normal;word-spacing:normal;text-transform:none;writing-mode:lr-tb;direction:ltr;text-orientation:mixed;dominant-baseline:auto;baseline-shift:baseline;text-anchor:start;white-space:normal;shape-padding:0;shape-margin:0;inline-size:0;clip-rule:nonzero;display:inline;overflow:visible;visibility:visible;opacity:1;isolation:auto;mix-blend-mode:normal;color-interpolation:sRGB;color-interpolation-filters:linearRGB;solid-color:#000000;solid-opacity:1;vector-effect:none;fill:#e9e6f3;fill-opacity:1;fill-rule:nonzero;stroke:none;stroke-linecap:round;stroke-linejoin:miter;stroke-miterlimit:4;stroke-dasharray:none;stroke-dashoffset:0;stroke-opacity:1;color-rendering:auto;image-rendering:auto;shape-rendering:auto;text-rendering:auto;enable-background:accumulate;stop-color:#000000;stop-opacity:1"
             d="m 1778.0078,-186.22461 a 1.15263,1.15263 0 0 0 -0.2617,0.0312 1.15263,1.15263 0 0 0 -0.076,0.0195 1.15263,1.15263 0 0 0 -0.096,0.0352 1.15263,1.15263 0 0 0 -0.01,0.002 1.15263,1.15263 0 0 0 -0.076,0.0352 1.15263,1.15263 0 0 0 -0.037,0.0195 1.15263,1.15263 0 0 0 -0.047,0.0273 1.15263,1.15263 0 0 0 -0.07,0.0449 1.15263,1.15263 0 0 0 -0.037,0.0293 1.15263,1.15263 0 0 0 -0.035,0.0273 1.15263,1.15263 0 0 0 0,0.004 1.15263,1.15263 0 0 0 -0.066,0.0606 1.15263,1.15263 0 0 0 -0.061,0.0644 1.15263,1.15263 0 0 0 0,0.002 1.15263,1.15263 0 0 0 -0.055,0.0703 1.15263,1.15263 0 0 0 -0.051,0.0742 1.15263,1.15263 0 0 0 -0.045,0.0781 1.15263,1.15263 0 0 0 0,0.002 1.15263,1.15263 0 0 0 -0.037,0.0801 1.15263,1.15263 0 0 0 0,0.002 1.15263,1.15263 0 0 0 -0.031,0.082 1.15263,1.15263 0 0 0 -0.025,0.0879 1.15263,1.15263 0 0 0 -0.018,0.0879 1.15263,1.15263 0 0 0 0,0.002 1.15263,1.15263 0 0 0 -0.012,0.0879 1.15263,1.15263 0 0 0 0,0.002 1.15263,1.15263 0 0 0 0,0.0879 1.15263,1.15263 0 0 0 0,0.006 v 36.03125 a 1.15263,1.15263 0 0 0 0.3242,1.00586 1.15263,1.15263 0 0 0 1.4297,0.1543 1.15263,1.15263 0 0 0 0.074,-0.0508 1.15263,1.15263 0 0 0 0.014,-0.0117 1.15263,1.15263 0 0 0 0.1855,-0.16992 1.15263,1.15263 0 0 0 0,-0.002 l 8.8437,-8.9043 8.6211,7.9082 a 1.15263,1.15263 0 0 0 1.6289,-0.0703 1.15263,1.15263 0 0 0 -0.07,-1.62891 l -10.2539,-9.40625 -8.4941,8.55274 v -30.61133 l 8.5097,8.56641 10.2539,-9.40625 a 1.15263,1.15263 0 0 0 0.07,-1.62891 1.15263,1.15263 0 0 0 -1.6289,-0.0684 l -8.6211,7.90625 -8.9179,-8.97852 a 1.15263,1.15263 0 0 0 -0.061,-0.0566 1.15263,1.15263 0 0 0 -0.01,-0.006 1.15263,1.15263 0 0 0 -0.068,-0.0547 1.15263,1.15263 0 0 0 -0.072,-0.0508 1.15263,1.15263 0 0 0 -0.027,-0.0156 1.15263,1.15263 0 0 0 -0.1328,-0.0664 1.15263,1.15263 0 0 0 -0.084,-0.0312 1.15263,1.15263 0 0 0 -0.084,-0.0254 1.15263,1.15263 0 0 0 -0.088,-0.0176 1.15263,1.15263 0 0 0 -0.09,-0.0117 1.15263,1.15263 0 0 0 -0.096,-0.004 z"
             id="path1307" />
        </g>
        <path
           id="path1271"
           style="opacity:0.471882;fill:url(#linearGradient1305);fill-opacity:1;stroke-width:0.218;stroke-linecap:round;stroke-linejoin:bevel"
           inkscape:transform-center-x="-1.3713425"
           inkscape:transform-center-y="-1.4917913"
           d="m 1784.7194,-199.12003 c -2.2965,-0.0376 -4.5128,0.57113 -6.5639,2.02417 -8.3029,5.88186 -14.9293,14.35746 -15.9091,24.53752 1.5031,-9.43861 7.8531,-17.31127 15.6982,-22.86889 10.0978,-7.15341 24.2076,6.1508 32.1133,16.34784 3.1082,4.00898 4.0297,7.37494 3.7703,10.83448 0.7111,-4.06886 0.045,-7.85371 -3.56,-12.50311 -6.2998,-8.12577 -16.5393,-18.22441 -25.5488,-18.37201 z" />
        <path
           id="path1273"
           style="opacity:0.458768;fill:url(#linearGradient1315);fill-opacity:1;stroke:none;stroke-width:1.71423;stroke-linecap:round;stroke-linejoin:round;stroke-miterlimit:4;stroke-dasharray:none"
           inkscape:transform-center-x="0.62488527"
           inkscape:transform-center-y="-0.06061819"
           d="m 1773.8673,-191.45137 c 2.8063,-2.39035 4.6967,-2.69175 7.3301,-2.56303 2.6334,0.12872 1.6742,2.93535 0.9181,5.4697 -0.7561,2.53441 -2.1326,4.51847 -5.4576,5.74936 -3.3249,1.23088 -7.8255,0.93297 -7.9024,-1.41816 -0.2184,-2.2131 2.5188,-5.0292 5.1118,-7.23787 z"
           sodipodi:nodetypes="sssscs" />
        <path
           id="path1275"
           style="opacity:0.458768;fill:url(#linearGradient1323);fill-opacity:1;stroke:none;stroke-width:0.74816;stroke-linecap:round;stroke-linejoin:round;stroke-miterlimit:4;stroke-dasharray:none"
           inkscape:transform-center-x="0.22684158"
           inkscape:transform-center-y="0.04335238"
           d="m 1765.6979,-180.06123 c 0.6428,-1.61691 1.4539,-2.70225 2.6857,-2.5228 1.1378,0.16579 1.3479,1.39483 1.463,2.53078 0.1152,1.13597 -0.1171,2.13383 -1.2766,3.09477 -1.1595,0.96093 -2.4238,1.5036 -2.8504,0.55745 -0.4268,-0.94707 -0.5524,-2.32558 -0.022,-3.6602 z"
           sodipodi:nodetypes="ssssss" />
        <path
           id="path1277"
           style="opacity:0.184663;fill:url(#linearGradient1331);fill-opacity:1;stroke-width:0.218;stroke-linecap:round;stroke-linejoin:bevel"
           inkscape:transform-center-x="-1.3713425"
           inkscape:transform-center-y="-1.4917913"
           d="m 1784.9566,-196.14686 c -1.0593,-0.52771 -3.1494,0.12406 -5.5501,1.47198 -6.6214,3.71775 -16.3673,12.81596 -14.8695,26.509 2.8135,-15.17533 8.0718,-21.85484 19.2729,-27.24924 0.4172,-0.2009 0.7598,-0.51116 1.1467,-0.73174 z"
           sodipodi:nodetypes="cscsc" />
      </g>
      <text
         xml:space="preserve"
         id="text880"
         style="font-style:normal;font-weight:normal;font-size:10.5833px;line-height:1.25;font-family:sans-serif;white-space:pre;shape-inside:url(#rect882);fill:#5c4aa1;fill-opacity:1;stroke:none;"
         transform="matrix(10.454508,0,0,10.454508,-20861.138,1975.288)"><tspan
           x="2015.5547"
           y="-175.82316"><tspan
             style="font-style:normal;font-variant:normal;font-weight:500;font-stretch:normal;font-family:'Maven Pro';-inkscape-font-specification:'Maven Pro Medium';fill:#5c4aa1;fill-opacity:1">Rune</tspan></tspan></text>
    </g>
  </g>
</svg>
